solid icedtea
   facet normal 1.000000e+000 0.000000e+000 0.000000e+000
      outer loop
         vertex 9.800000e-002 2.280000e-001 0.000000e+000
         vertex 9.800000e-002 2.280000e-001 7.300000e-002
         vertex 9.800000e-002 5.551115e-017 0.000000e+000
      endloop
   endfacet
   facet normal 1.000000e+000 0.000000e+000 0.000000e+000
      outer loop
         vertex 9.800000e-002 5.551115e-017 0.000000e+000
         vertex 9.800000e-002 2.280000e-001 7.300000e-002
         vertex 9.800000e-002 5.551115e-017 7.300000e-002
      endloop
   endfacet
   facet normal 0.000000e+000 0.000000e+000 -1.000000e+000
      outer loop
         vertex 0.000000e+000 2.280000e-001 0.000000e+000
         vertex 9.800000e-002 2.280000e-001 0.000000e+000
         vertex 0.000000e+000 5.551115e-017 0.000000e+000
      endloop
   endfacet
   facet normal 0.000000e+000 0.000000e+000 -1.000000e+000
      outer loop
         vertex 0.000000e+000 5.551115e-017 0.000000e+000
         vertex 9.800000e-002 2.280000e-001 0.000000e+000
         vertex 9.800000e-002 5.551115e-017 0.000000e+000
      endloop
   endfacet
   facet normal -1.000000e+000 0.000000e+000 0.000000e+000
      outer loop
         vertex 0.000000e+000 2.280000e-001 7.300000e-002
         vertex 0.000000e+000 2.280000e-001 0.000000e+000
         vertex 0.000000e+000 5.551115e-017 7.300000e-002
      endloop
   endfacet
   facet normal -1.000000e+000 0.000000e+000 0.000000e+000
      outer loop
         vertex 0.000000e+000 5.551115e-017 7.300000e-002
         vertex 0.000000e+000 2.280000e-001 0.000000e+000
         vertex 0.000000e+000 5.551115e-017 0.000000e+000
      endloop
   endfacet
   facet normal 0.000000e+000 0.000000e+000 1.000000e+000
      outer loop
         vertex 9.800000e-002 2.280000e-001 7.300000e-002
         vertex 0.000000e+000 2.280000e-001 7.300000e-002
         vertex 9.800000e-002 5.551115e-017 7.300000e-002
      endloop
   endfacet
   facet normal 0.000000e+000 0.000000e+000 1.000000e+000
      outer loop
         vertex 9.800000e-002 5.551115e-017 7.300000e-002
         vertex 0.000000e+000 2.280000e-001 7.300000e-002
         vertex 0.000000e+000 5.551115e-017 7.300000e-002
      endloop
   endfacet
   facet normal 0.000000e+000 1.000000e+000 0.000000e+000
      outer loop
         vertex 0.000000e+000 2.280000e-001 0.000000e+000
         vertex 0.000000e+000 2.280000e-001 7.300000e-002
         vertex 9.800000e-002 2.280000e-001 0.000000e+000
      endloop
   endfacet
   facet normal 0.000000e+000 1.000000e+000 0.000000e+000
      outer loop
         vertex 9.800000e-002 2.280000e-001 0.000000e+000
         vertex 0.000000e+000 2.280000e-001 7.300000e-002
         vertex 9.800000e-002 2.280000e-001 7.300000e-002
      endloop
   endfacet
   facet normal 0.000000e+000 -1.000000e+000 0.000000e+000
      outer loop
         vertex 0.000000e+000 0.000000e+000 7.300000e-002
         vertex 0.000000e+000 0.000000e+000 0.000000e+000
         vertex 9.800000e-002 0.000000e+000 7.300000e-002
      endloop
   endfacet
   facet normal 0.000000e+000 -1.000000e+000 0.000000e+000
      outer loop
         vertex 9.800000e-002 0.000000e+000 7.300000e-002
         vertex 0.000000e+000 0.000000e+000 0.000000e+000
         vertex 9.800000e-002 0.000000e+000 0.000000e+000
      endloop
   endfacet
endsolid